G04*
G04 #@! TF.GenerationSoftware,Altium Limited,Altium Designer,22.1.2 (22)*
G04*
G04 Layer_Physical_Order=2*
G04 Layer_Color=16711680*
%FSLAX44Y44*%
%MOMM*%
G71*
G04*
G04 #@! TF.SameCoordinates,19965E84-46C0-4100-99EA-0F3305BD4A74*
G04*
G04*
G04 #@! TF.FilePolarity,Positive*
G04*
G01*
G75*
%ADD10C,0.1270*%
%ADD11C,0.2000*%
%ADD13C,0.2540*%
%ADD14C,0.1000*%
%ADD15C,0.0500*%
%ADD31C,2.0000*%
%ADD32C,1.4000*%
%ADD33R,1.4000X1.4000*%
%ADD34C,1.1600*%
%ADD35R,1.1600X1.1600*%
%ADD36C,1.9050*%
%ADD37R,1.9050X1.9050*%
%ADD38C,1.2000*%
%ADD39C,3.3020*%
%ADD40O,1.6764X3.3528*%
%ADD41C,1.1000*%
%ADD42R,1.1000X1.1000*%
%ADD43R,1.2000X1.2000*%
%ADD44R,1.2000X1.2000*%
%ADD45R,1.1600X1.1600*%
%ADD46C,3.0000*%
G36*
X1040130Y859680D02*
X1032461D01*
Y878840D01*
X1040130D01*
Y859680D01*
D02*
G37*
G36*
X1065530Y859674D02*
X1057903D01*
Y878840D01*
X1065530D01*
Y859674D01*
D02*
G37*
G36*
X1090930Y859749D02*
X1083323D01*
Y878840D01*
X1090930D01*
Y859749D01*
D02*
G37*
G36*
X1515110Y812690D02*
X1507441D01*
Y831850D01*
X1515110D01*
Y812690D01*
D02*
G37*
G36*
X1540510Y812684D02*
X1532883D01*
Y831850D01*
X1540510D01*
Y812684D01*
D02*
G37*
G36*
X1565910Y812759D02*
X1558303D01*
Y831850D01*
X1565910D01*
Y812759D01*
D02*
G37*
G54D10*
X693991Y783390D02*
G03*
X693991Y821890I13479J19250D01*
G01*
X865890Y858520D02*
G03*
X865890Y858520I-31500J0D01*
G01*
X1603410Y670560D02*
G03*
X1603410Y670560I-62500J0D01*
G01*
X909590Y479190D02*
G03*
X909590Y479190I-62500J0D01*
G01*
X534270Y800100D02*
G03*
X534270Y800100I-25000J0D01*
G01*
X693970Y783405D02*
Y821875D01*
X1181710Y400220D02*
Y504220D01*
X1227710D01*
Y400220D02*
Y504220D01*
X1181710Y400220D02*
X1227710D01*
X1371300Y499400D02*
X1384300D01*
X1397300D01*
Y567400D01*
X1384300D02*
X1397300D01*
X1371300D02*
X1384300D01*
X1371300Y499400D02*
Y567400D01*
X1384300Y484400D02*
Y499400D01*
Y567400D02*
Y582400D01*
X1180440Y735500D02*
Y839500D01*
X1226440D01*
Y735500D02*
Y839500D01*
X1180440Y735500D02*
X1226440D01*
X1370030Y691170D02*
X1383030D01*
X1396030D01*
Y759170D01*
X1383030D02*
X1396030D01*
X1370030D02*
X1383030D01*
X1370030Y691170D02*
Y759170D01*
X1383030Y676170D02*
Y691170D01*
Y759170D02*
Y774170D01*
G54D11*
X706920Y844640D02*
G03*
X706920Y844640I-1000J0D01*
G01*
X475830Y458470D02*
G03*
X475830Y458470I-1000J0D01*
G01*
X1210850Y393990D02*
G03*
X1210850Y393990I-1000J0D01*
G01*
X1209580Y729270D02*
G03*
X1209580Y729270I-1000J0D01*
G01*
X1548980Y452120D02*
G03*
X1548980Y452120I-1000J0D01*
G01*
X796390Y858520D02*
G03*
X796390Y858520I-1000J0D01*
G01*
X1471910Y670560D02*
G03*
X1471910Y670560I-1000J0D01*
G01*
X848090Y549190D02*
G03*
X848090Y549190I-1000J0D01*
G01*
X542770Y800100D02*
G03*
X542770Y800100I-1000J0D01*
G01*
X933180Y1039980D02*
G03*
X933180Y1039980I-1000J0D01*
G01*
G54D13*
X1555773Y889433D02*
X1557891Y891551D01*
X1562128D01*
X1564247Y889433D01*
Y887314D01*
X1562128Y885195D01*
X1560010D01*
X1562128D01*
X1564247Y883077D01*
Y880958D01*
X1562128Y878840D01*
X1557891D01*
X1555773Y880958D01*
X1538815Y878840D02*
X1530347D01*
X1538815Y887309D01*
Y889426D01*
X1536698Y891543D01*
X1532464D01*
X1530347Y889426D01*
X1504892Y878840D02*
X1509132D01*
X1507012D01*
Y891559D01*
X1504892Y889439D01*
X1080793Y936423D02*
X1082911Y938541D01*
X1087148D01*
X1089267Y936423D01*
Y934304D01*
X1087148Y932186D01*
X1085030D01*
X1087148D01*
X1089267Y930067D01*
Y927949D01*
X1087148Y925830D01*
X1082911D01*
X1080793Y927949D01*
X1063835Y925830D02*
X1055367D01*
X1063835Y934299D01*
Y936416D01*
X1061718Y938533D01*
X1057484D01*
X1055367Y936416D01*
X1029912Y925830D02*
X1034152D01*
X1032032D01*
Y938549D01*
X1029912Y936429D01*
G54D14*
X481330Y443220D02*
X506730D01*
Y499120D01*
X481330D02*
X506730D01*
X481330Y443220D02*
Y499120D01*
X1554480Y436870D02*
X1579880D01*
Y492770D01*
X1554480D02*
X1579880D01*
X1554480Y436870D02*
Y492770D01*
X947430Y1046480D02*
Y1071880D01*
X891530D02*
X947430D01*
X891530Y1046480D02*
Y1071880D01*
Y1046480D02*
X947430D01*
G54D15*
X868390Y858520D02*
G03*
X868390Y858520I-34000J0D01*
G01*
X1605910Y670560D02*
G03*
X1605910Y670560I-65000J0D01*
G01*
X912090Y479190D02*
G03*
X912090Y479190I-65000J0D01*
G01*
X536770Y800100D02*
G03*
X536770Y800100I-27500J0D01*
G01*
X733470Y768140D02*
Y837140D01*
X691470Y768140D02*
X733470D01*
X691470D02*
Y837140D01*
X733470D01*
X478830Y440720D02*
X509230D01*
Y501620D01*
X478830D02*
X509230D01*
X478830Y440720D02*
Y501620D01*
X1179210Y397720D02*
Y506720D01*
X1230210D01*
Y397720D02*
Y506720D01*
X1179210Y397720D02*
X1230210D01*
X1375800Y469900D02*
Y496900D01*
X1368800D02*
X1375800D01*
X1368800D02*
Y569900D01*
X1375800D01*
Y596900D01*
X1392800D01*
Y569900D02*
Y596900D01*
Y569900D02*
X1399800D01*
Y496900D02*
Y569900D01*
X1392800Y496900D02*
X1399800D01*
X1392800Y469900D02*
Y496900D01*
X1375800Y469900D02*
X1392800D01*
X1177940Y733000D02*
Y842000D01*
X1228940D01*
Y733000D02*
Y842000D01*
X1177940Y733000D02*
X1228940D01*
X1551980Y434370D02*
X1582380D01*
Y495270D01*
X1551980D02*
X1582380D01*
X1551980Y434370D02*
Y495270D01*
X949930Y1043980D02*
Y1074380D01*
X889030D02*
X949930D01*
X889030Y1043980D02*
Y1074380D01*
Y1043980D02*
X949930D01*
X1374530Y661670D02*
Y688670D01*
X1367530D02*
X1374530D01*
X1367530D02*
Y761670D01*
X1374530D01*
Y788670D01*
X1391530D01*
Y761670D02*
Y788670D01*
Y761670D02*
X1398530D01*
Y688670D02*
Y761670D01*
X1391530Y688670D02*
X1398530D01*
X1391530Y661670D02*
Y688670D01*
X1374530Y661670D02*
X1391530D01*
G54D31*
X835895Y907246D02*
G03*
X803138Y758962I30933J-84593D01*
G01*
X1115014Y998128D02*
G03*
X1113289Y996219I13945J-14337D01*
G01*
X1061851Y866388D02*
G03*
X850096Y1113787I-215959J29478D01*
G01*
X1113288Y996218D02*
G03*
X1069532Y911730I194754J-154437D01*
G01*
X1536700Y815340D02*
G03*
X1115014Y998128I-248748J3948D01*
G01*
X1061851Y866388D02*
G03*
X1061720Y862330I19821J-2671D01*
G01*
X850096Y1113787D02*
G03*
X849746Y1113790I-349J-19997D01*
G01*
X756370D02*
G03*
X754121Y1113663I0J-20000D01*
G01*
X883509Y915670D02*
G03*
X835895Y907246I0J-138773D01*
G01*
X754121Y1113663D02*
G03*
X635000Y1060450I25252J-216465D01*
G01*
X1036320Y862330D02*
G03*
X1021756Y829287I43699J-38993D01*
G01*
X1021749Y829223D02*
G03*
X1030033Y774189I111867J-11301D01*
G01*
X1030033Y774189D02*
G03*
X1048400Y762000I18412J7811D01*
G01*
X1209146Y812925D02*
G03*
X1218126Y809435I11522J16348D01*
G01*
X1228232Y722772D02*
G03*
X1239857Y787704I-40747J40802D01*
G01*
X1563950Y817318D02*
G03*
X1563370Y822960I-59074J-3227D01*
G01*
X1528699Y780170D02*
G03*
X1563950Y817318I45J35257D01*
G01*
X955453Y722928D02*
G03*
X975012Y777544I-46052J47303D01*
G01*
D02*
G03*
X928370Y858520I-116195J-13008D01*
G01*
X846812Y599251D02*
G03*
X706120Y678180I-92486J-0D01*
G01*
X1224106Y429206D02*
G03*
X1200720Y860784I-116233J210124D01*
G01*
D02*
G03*
X1193009Y862330I-7711J-18454D01*
G01*
X1214481Y426720D02*
G03*
X1224106Y429206I-32J20000D01*
G01*
X803138Y758962D02*
X925830Y636270D01*
X1062990D01*
X1115014Y998128D02*
X1115014Y998128D01*
X1113288Y996218D02*
X1113289Y996219D01*
X883509Y915670D02*
X1061320D01*
X1061720Y862330D02*
X1061720Y862330D01*
X850096Y1113787D02*
X850096Y1113787D01*
X754121Y1113663D02*
Y1113663D01*
X635000Y1060450D02*
X635000Y1060450D01*
X708660Y1059180D02*
X906780D01*
X705920Y827640D02*
Y853240D01*
X707390Y854710D01*
X1048445Y762000D02*
X1209040D01*
X1021749Y829223D02*
X1021756Y829287D01*
X1048400Y762000D02*
X1048445Y762000D01*
X1061320Y862730D02*
Y915670D01*
X756370Y1113790D02*
X849746D01*
X1218126Y809435D02*
X1237051Y790509D01*
X1239857Y787704D01*
X1239857Y787704D01*
X1228210Y722749D02*
X1228232Y722772D01*
X1209040Y813000D02*
X1209146Y812925D01*
X1065530Y560070D02*
X1228210Y722749D01*
X1062990Y560070D02*
X1065530D01*
X703580Y534670D02*
Y600710D01*
X1563950Y817318D02*
X1563950D01*
X1383030Y780170D02*
X1528699D01*
X635000Y800100D02*
X635000D01*
X637540Y802640D02*
X705920D01*
X635000Y800100D02*
X637540Y802640D01*
X635000Y530860D02*
Y800100D01*
X641350Y1059180D02*
X708660D01*
X635000Y800100D02*
Y984250D01*
X1383030Y589670D02*
Y670170D01*
X1515520D01*
X1127760Y862330D02*
X1193009D01*
X975012Y777544D02*
X975012D01*
X846890Y858520D02*
X928370D01*
X943642D01*
X946247D02*
X1024604D01*
X943642D02*
X946247D01*
X1026796Y860712D02*
X1034702D01*
X1036320Y862330D01*
X1024604Y858520D02*
X1026796Y860712D01*
X952334Y721445D02*
X955453Y722928D01*
X703580Y676910D02*
X705920Y679250D01*
Y777640D01*
X707390Y930910D02*
Y982980D01*
X521770Y800100D02*
X558800D01*
X494030Y483870D02*
X496770Y486610D01*
Y800100D01*
X933450Y712470D02*
X952334Y721445D01*
X846812Y599251D02*
X846813Y599251D01*
X846812Y599251D02*
Y599251D01*
X706556Y677468D02*
X709715Y678060D01*
X846813Y504266D02*
Y599251D01*
X703580Y676910D02*
X706556Y677468D01*
X1209040Y762000D02*
X1209040Y762000D01*
X1210310Y426720D02*
X1214481D01*
X1087120Y862330D02*
X1127760D01*
X1567180Y477520D02*
Y670560D01*
G54D32*
X707390Y854710D02*
D03*
Y930910D02*
D03*
X705920Y777640D02*
D03*
Y802640D02*
D03*
X635000Y984250D02*
D03*
Y1060450D02*
D03*
X708660Y984250D02*
D03*
Y1060450D02*
D03*
X558800Y800100D02*
D03*
X635000D02*
D03*
X704850Y457200D02*
D03*
Y533400D02*
D03*
X635000Y454660D02*
D03*
Y530860D02*
D03*
X928370Y782320D02*
D03*
Y858520D02*
D03*
X933450Y712470D02*
D03*
Y636270D02*
D03*
X703580Y600710D02*
D03*
Y676910D02*
D03*
X1127760Y861060D02*
D03*
Y784860D02*
D03*
X1062990Y560070D02*
D03*
Y636270D02*
D03*
G54D33*
X705920Y827640D02*
D03*
G54D34*
X494030Y483870D02*
D03*
X1567180Y477520D02*
D03*
X906780Y1059180D02*
D03*
G54D35*
X494030Y458470D02*
D03*
X1567180Y452120D02*
D03*
G54D36*
X1210310Y477720D02*
D03*
Y452220D02*
D03*
X1209040Y813000D02*
D03*
Y787500D02*
D03*
G54D37*
X1210310Y426720D02*
D03*
X1209040Y762000D02*
D03*
G54D38*
X1384300Y478400D02*
D03*
Y588400D02*
D03*
X1565910Y670560D02*
D03*
X847090Y454190D02*
D03*
X1383030Y670170D02*
D03*
Y780170D02*
D03*
G54D39*
X1536700Y990600D02*
D03*
X1061720Y1037590D02*
D03*
G54D40*
X1562100Y815340D02*
D03*
X1536700D02*
D03*
X1511300D02*
D03*
X1087120Y862330D02*
D03*
X1061720D02*
D03*
X1036320D02*
D03*
G54D41*
X846890Y858520D02*
D03*
X496770Y800100D02*
D03*
G54D42*
X821890Y858520D02*
D03*
X521770Y800100D02*
D03*
G54D43*
X1515910Y670560D02*
D03*
G54D44*
X847090Y504190D02*
D03*
G54D45*
X932180Y1059180D02*
D03*
G54D46*
X473710Y1106170D02*
D03*
Y410210D02*
D03*
X1654810D02*
D03*
Y1106170D02*
D03*
M02*
