G04*
G04 #@! TF.GenerationSoftware,Altium Limited,Altium Designer,22.1.2 (22)*
G04*
G04 Layer_Color=2752767*
%FSLAX44Y44*%
%MOMM*%
G71*
G04*
G04 #@! TF.SameCoordinates,19965E84-46C0-4100-99EA-0F3305BD4A74*
G04*
G04*
G04 #@! TF.FilePolarity,Positive*
G04*
G01*
G75*
%ADD10C,0.1270*%
%ADD11C,0.2000*%
%ADD12C,0.0508*%
%ADD13C,0.2540*%
%ADD14C,0.1000*%
%ADD15C,0.0500*%
%ADD48C,0.0677*%
G36*
X1040130Y859680D02*
X1032461D01*
Y878840D01*
X1040130D01*
Y859680D01*
D02*
G37*
G36*
X1065530Y859674D02*
X1057903D01*
Y878840D01*
X1065530D01*
Y859674D01*
D02*
G37*
G36*
X1090930Y859749D02*
X1083323D01*
Y878840D01*
X1090930D01*
Y859749D01*
D02*
G37*
G36*
X1515110Y812690D02*
X1507441D01*
Y831850D01*
X1515110D01*
Y812690D01*
D02*
G37*
G36*
X1540510Y812684D02*
X1532883D01*
Y831850D01*
X1540510D01*
Y812684D01*
D02*
G37*
G36*
X1565910Y812759D02*
X1558303D01*
Y831850D01*
X1565910D01*
Y812759D01*
D02*
G37*
G54D10*
X693991Y783390D02*
G03*
X693991Y821890I13479J19250D01*
G01*
X865890Y858520D02*
G03*
X865890Y858520I-31500J0D01*
G01*
X1603410Y670560D02*
G03*
X1603410Y670560I-62500J0D01*
G01*
X909590Y479190D02*
G03*
X909590Y479190I-62500J0D01*
G01*
X534270Y800100D02*
G03*
X534270Y800100I-25000J0D01*
G01*
X693970Y783405D02*
Y821875D01*
X1181710Y400220D02*
Y504220D01*
X1227710D01*
Y400220D02*
Y504220D01*
X1181710Y400220D02*
X1227710D01*
X1371300Y499400D02*
X1384300D01*
X1397300D01*
Y567400D01*
X1384300D02*
X1397300D01*
X1371300D02*
X1384300D01*
X1371300Y499400D02*
Y567400D01*
X1384300Y484400D02*
Y499400D01*
Y567400D02*
Y582400D01*
X1180440Y735500D02*
Y839500D01*
X1226440D01*
Y735500D02*
Y839500D01*
X1180440Y735500D02*
X1226440D01*
X1370030Y691170D02*
X1383030D01*
X1396030D01*
Y759170D01*
X1383030D02*
X1396030D01*
X1370030D02*
X1383030D01*
X1370030Y691170D02*
Y759170D01*
X1383030Y676170D02*
Y691170D01*
Y759170D02*
Y774170D01*
G54D11*
X706920Y844640D02*
G03*
X706920Y844640I-1000J0D01*
G01*
X475830Y458470D02*
G03*
X475830Y458470I-1000J0D01*
G01*
X1210850Y393990D02*
G03*
X1210850Y393990I-1000J0D01*
G01*
X1209580Y729270D02*
G03*
X1209580Y729270I-1000J0D01*
G01*
X1548980Y452120D02*
G03*
X1548980Y452120I-1000J0D01*
G01*
X796390Y858520D02*
G03*
X796390Y858520I-1000J0D01*
G01*
X1471910Y670560D02*
G03*
X1471910Y670560I-1000J0D01*
G01*
X848090Y549190D02*
G03*
X848090Y549190I-1000J0D01*
G01*
X542770Y800100D02*
G03*
X542770Y800100I-1000J0D01*
G01*
X933180Y1039980D02*
G03*
X933180Y1039980I-1000J0D01*
G01*
G54D12*
X705358Y852678D02*
Y856742D01*
X709422D01*
Y852678D01*
X705358D01*
Y928878D02*
Y932942D01*
X709422D01*
Y928878D01*
X705358D01*
X494030Y481838D02*
X491998Y485902D01*
X496062D01*
X494030Y481838D01*
Y456438D02*
X491998Y460502D01*
X496062D01*
X494030Y456438D01*
X1210310Y475688D02*
X1211326Y476704D01*
X1212342D01*
X1211326Y477720D01*
X1212342Y478736D01*
X1211326D01*
X1210310Y479752D01*
X1209294Y478736D01*
X1208278D01*
X1209294Y477720D01*
X1208278Y476704D01*
X1209294D01*
X1210310Y475688D01*
Y450188D02*
X1211326Y451204D01*
X1212342D01*
X1211326Y452220D01*
X1212342Y453236D01*
X1211326D01*
X1210310Y454252D01*
X1209294Y453236D01*
X1208278D01*
X1209294Y452220D01*
X1208278Y451204D01*
X1209294D01*
X1210310Y450188D01*
Y424688D02*
X1211326Y425704D01*
X1212342D01*
X1211326Y426720D01*
X1212342Y427736D01*
X1211326D01*
X1210310Y428752D01*
X1209294Y427736D01*
X1208278D01*
X1209294Y426720D01*
X1208278Y425704D01*
X1209294D01*
X1210310Y424688D01*
X1382268Y476368D02*
X1383284Y478400D01*
X1382268Y480432D01*
X1384300Y479416D01*
X1386332Y480432D01*
X1385316Y478400D01*
X1386332Y476368D01*
X1384300Y477384D01*
X1382268Y476368D01*
Y586368D02*
X1383284Y588400D01*
X1382268Y590432D01*
X1384300Y589416D01*
X1386332Y590432D01*
X1385316Y588400D01*
X1386332Y586368D01*
X1384300Y587384D01*
X1382268Y586368D01*
X1209040Y810968D02*
X1210056Y811984D01*
X1211072D01*
X1210056Y813000D01*
X1211072Y814016D01*
X1210056D01*
X1209040Y815032D01*
X1208024Y814016D01*
X1207008D01*
X1208024Y813000D01*
X1207008Y811984D01*
X1208024D01*
X1209040Y810968D01*
Y785468D02*
X1210056Y786484D01*
X1211072D01*
X1210056Y787500D01*
X1211072Y788516D01*
X1210056D01*
X1209040Y789532D01*
X1208024Y788516D01*
X1207008D01*
X1208024Y787500D01*
X1207008Y786484D01*
X1208024D01*
X1209040Y785468D01*
Y759968D02*
X1210056Y760984D01*
X1211072D01*
X1210056Y762000D01*
X1211072Y763016D01*
X1210056D01*
X1209040Y764032D01*
X1208024Y763016D01*
X1207008D01*
X1208024Y762000D01*
X1207008Y760984D01*
X1208024D01*
X1209040Y759968D01*
X1535684Y989584D02*
Y988568D01*
X1537716D01*
Y989584D01*
X1538732D01*
Y991616D01*
X1537716D01*
Y992632D01*
X1535684D01*
Y991616D01*
X1534668D01*
Y989584D01*
X1535684D01*
X1560068Y813308D02*
X1561084D01*
X1562100Y814324D01*
X1563116Y813308D01*
X1564132D01*
Y814324D01*
X1563116Y815340D01*
X1564132Y816356D01*
Y817372D01*
X1563116D01*
X1562100Y816356D01*
X1561084Y817372D01*
X1560068D01*
Y816356D01*
X1561084Y815340D01*
X1560068Y814324D01*
Y813308D01*
X1534668D02*
X1535684D01*
X1536700Y814324D01*
X1537716Y813308D01*
X1538732D01*
Y814324D01*
X1537716Y815340D01*
X1538732Y816356D01*
Y817372D01*
X1537716D01*
X1536700Y816356D01*
X1535684Y817372D01*
X1534668D01*
Y816356D01*
X1535684Y815340D01*
X1534668Y814324D01*
Y813308D01*
X1509268D02*
X1510284D01*
X1511300Y814324D01*
X1512316Y813308D01*
X1513332D01*
Y814324D01*
X1512316Y815340D01*
X1513332Y816356D01*
Y817372D01*
X1512316D01*
X1511300Y816356D01*
X1510284Y817372D01*
X1509268D01*
Y816356D01*
X1510284Y815340D01*
X1509268Y814324D01*
Y813308D01*
X1060704Y1036574D02*
Y1035558D01*
X1062736D01*
Y1036574D01*
X1063752D01*
Y1038606D01*
X1062736D01*
Y1039622D01*
X1060704D01*
Y1038606D01*
X1059688D01*
Y1036574D01*
X1060704D01*
X1085088Y860298D02*
X1086104D01*
X1087120Y861314D01*
X1088136Y860298D01*
X1089152D01*
Y861314D01*
X1088136Y862330D01*
X1089152Y863346D01*
Y864362D01*
X1088136D01*
X1087120Y863346D01*
X1086104Y864362D01*
X1085088D01*
Y863346D01*
X1086104Y862330D01*
X1085088Y861314D01*
Y860298D01*
X1059688D02*
X1060704D01*
X1061720Y861314D01*
X1062736Y860298D01*
X1063752D01*
Y861314D01*
X1062736Y862330D01*
X1063752Y863346D01*
Y864362D01*
X1062736D01*
X1061720Y863346D01*
X1060704Y864362D01*
X1059688D01*
Y863346D01*
X1060704Y862330D01*
X1059688Y861314D01*
Y860298D01*
X1034288D02*
X1035304D01*
X1036320Y861314D01*
X1037336Y860298D01*
X1038352D01*
Y861314D01*
X1037336Y862330D01*
X1038352Y863346D01*
Y864362D01*
X1037336D01*
X1036320Y863346D01*
X1035304Y864362D01*
X1034288D01*
Y863346D01*
X1035304Y862330D01*
X1034288Y861314D01*
Y860298D01*
X1567180Y475488D02*
X1565148Y479552D01*
X1569212D01*
X1567180Y475488D01*
Y450088D02*
X1565148Y454152D01*
X1569212D01*
X1567180Y450088D01*
X844858Y858520D02*
X846890Y860552D01*
X848922Y858520D01*
X846890Y856488D01*
X844858Y858520D01*
X819858D02*
X821890Y860552D01*
X823922Y858520D01*
X821890Y856488D01*
X819858Y858520D01*
X1563878Y668528D02*
Y672592D01*
X1567942D01*
Y668528D01*
X1563878D01*
X1513878D02*
Y672592D01*
X1517942D01*
Y668528D01*
X1513878D01*
X845058Y452158D02*
Y456222D01*
X849122D01*
Y452158D01*
X845058D01*
Y502158D02*
Y506222D01*
X849122D01*
Y502158D01*
X845058D01*
X494738Y800100D02*
X496770Y802132D01*
X498802Y800100D01*
X496770Y798068D01*
X494738Y800100D01*
X519738D02*
X521770Y802132D01*
X523802Y800100D01*
X521770Y798068D01*
X519738Y800100D01*
X632968Y982218D02*
Y986282D01*
X637032D01*
Y982218D01*
X632968D01*
Y1058418D02*
Y1062482D01*
X637032D01*
Y1058418D01*
X632968D01*
X706628Y982218D02*
Y986282D01*
X710692D01*
Y982218D01*
X706628D01*
Y1058418D02*
Y1062482D01*
X710692D01*
Y1058418D01*
X706628D01*
X556768Y798068D02*
Y802132D01*
X560832D01*
Y798068D01*
X556768D01*
X632968D02*
Y802132D01*
X637032D01*
Y798068D01*
X632968D01*
X906780Y1057148D02*
X904748Y1061212D01*
X908812D01*
X906780Y1057148D01*
X932180D02*
X930148Y1061212D01*
X934212D01*
X932180Y1057148D01*
X702818Y455168D02*
Y459232D01*
X706882D01*
Y455168D01*
X702818D01*
Y531368D02*
Y535432D01*
X706882D01*
Y531368D01*
X702818D01*
X632968Y452628D02*
Y456692D01*
X637032D01*
Y452628D01*
X632968D01*
Y528828D02*
Y532892D01*
X637032D01*
Y528828D01*
X632968D01*
X926338Y780288D02*
Y784352D01*
X930402D01*
Y780288D01*
X926338D01*
Y856488D02*
Y860552D01*
X930402D01*
Y856488D01*
X926338D01*
X931418Y710438D02*
Y714502D01*
X935482D01*
Y710438D01*
X931418D01*
Y634238D02*
Y638302D01*
X935482D01*
Y634238D01*
X931418D01*
X701548Y598678D02*
Y602742D01*
X705612D01*
Y598678D01*
X701548D01*
Y674878D02*
Y678942D01*
X705612D01*
Y674878D01*
X701548D01*
X1125728Y859028D02*
Y863092D01*
X1129792D01*
Y859028D01*
X1125728D01*
Y782828D02*
Y786892D01*
X1129792D01*
Y782828D01*
X1125728D01*
X1380998Y668138D02*
X1382014Y670170D01*
X1380998Y672202D01*
X1383030Y671186D01*
X1385062Y672202D01*
X1384046Y670170D01*
X1385062Y668138D01*
X1383030Y669154D01*
X1380998Y668138D01*
Y778138D02*
X1382014Y780170D01*
X1380998Y782202D01*
X1383030Y781186D01*
X1385062Y782202D01*
X1384046Y780170D01*
X1385062Y778138D01*
X1383030Y779154D01*
X1380998Y778138D01*
X1060958Y558038D02*
Y562102D01*
X1065022D01*
Y558038D01*
X1060958D01*
Y634238D02*
Y638302D01*
X1065022D01*
Y634238D01*
X1060958D01*
X471678Y1104138D02*
Y1108202D01*
X475742D01*
Y1104138D01*
X471678D01*
X472694Y1105154D02*
Y1107186D01*
X474726D01*
Y1105154D01*
X472694D01*
X471678Y408178D02*
Y412242D01*
X475742D01*
Y408178D01*
X471678D01*
X472694Y409194D02*
Y411226D01*
X474726D01*
Y409194D01*
X472694D01*
X1652778Y408178D02*
Y412242D01*
X1656842D01*
Y408178D01*
X1652778D01*
X1653794Y409194D02*
Y411226D01*
X1655826D01*
Y409194D01*
X1653794D01*
X1652778Y1104138D02*
Y1108202D01*
X1656842D01*
Y1104138D01*
X1652778D01*
X1653794Y1105154D02*
Y1107186D01*
X1655826D01*
Y1105154D01*
X1653794D01*
G54D13*
X1555773Y889433D02*
X1557891Y891551D01*
X1562128D01*
X1564247Y889433D01*
Y887314D01*
X1562128Y885195D01*
X1560010D01*
X1562128D01*
X1564247Y883077D01*
Y880958D01*
X1562128Y878840D01*
X1557891D01*
X1555773Y880958D01*
X1538815Y878840D02*
X1530347D01*
X1538815Y887309D01*
Y889426D01*
X1536698Y891543D01*
X1532464D01*
X1530347Y889426D01*
X1504892Y878840D02*
X1509132D01*
X1507012D01*
Y891559D01*
X1504892Y889439D01*
X1080793Y936423D02*
X1082911Y938541D01*
X1087148D01*
X1089267Y936423D01*
Y934304D01*
X1087148Y932186D01*
X1085030D01*
X1087148D01*
X1089267Y930067D01*
Y927949D01*
X1087148Y925830D01*
X1082911D01*
X1080793Y927949D01*
X1063835Y925830D02*
X1055367D01*
X1063835Y934299D01*
Y936416D01*
X1061718Y938533D01*
X1057484D01*
X1055367Y936416D01*
X1029912Y925830D02*
X1034152D01*
X1032032D01*
Y938549D01*
X1029912Y936429D01*
G54D14*
X481330Y443220D02*
X506730D01*
Y499120D01*
X481330D02*
X506730D01*
X481330Y443220D02*
Y499120D01*
X1554480Y436870D02*
X1579880D01*
Y492770D01*
X1554480D02*
X1579880D01*
X1554480Y436870D02*
Y492770D01*
X947430Y1046480D02*
Y1071880D01*
X891530D02*
X947430D01*
X891530Y1046480D02*
Y1071880D01*
Y1046480D02*
X947430D01*
G54D15*
X868390Y858520D02*
G03*
X868390Y858520I-34000J0D01*
G01*
X1605910Y670560D02*
G03*
X1605910Y670560I-65000J0D01*
G01*
X912090Y479190D02*
G03*
X912090Y479190I-65000J0D01*
G01*
X536770Y800100D02*
G03*
X536770Y800100I-27500J0D01*
G01*
X733470Y768140D02*
Y837140D01*
X691470Y768140D02*
X733470D01*
X691470D02*
Y837140D01*
X733470D01*
X478830Y440720D02*
X509230D01*
Y501620D01*
X478830D02*
X509230D01*
X478830Y440720D02*
Y501620D01*
X1179210Y397720D02*
Y506720D01*
X1230210D01*
Y397720D02*
Y506720D01*
X1179210Y397720D02*
X1230210D01*
X1375800Y469900D02*
Y496900D01*
X1368800D02*
X1375800D01*
X1368800D02*
Y569900D01*
X1375800D01*
Y596900D01*
X1392800D01*
Y569900D02*
Y596900D01*
Y569900D02*
X1399800D01*
Y496900D02*
Y569900D01*
X1392800Y496900D02*
X1399800D01*
X1392800Y469900D02*
Y496900D01*
X1375800Y469900D02*
X1392800D01*
X1177940Y733000D02*
Y842000D01*
X1228940D01*
Y733000D02*
Y842000D01*
X1177940Y733000D02*
X1228940D01*
X1551980Y434370D02*
X1582380D01*
Y495270D01*
X1551980D02*
X1582380D01*
X1551980Y434370D02*
Y495270D01*
X949930Y1043980D02*
Y1074380D01*
X889030D02*
X949930D01*
X889030Y1043980D02*
Y1074380D01*
Y1043980D02*
X949930D01*
X1374530Y661670D02*
Y688670D01*
X1367530D02*
X1374530D01*
X1367530D02*
Y761670D01*
X1374530D01*
Y788670D01*
X1391530D01*
Y761670D02*
Y788670D01*
Y761670D02*
X1398530D01*
Y688670D02*
Y761670D01*
X1391530Y688670D02*
X1398530D01*
X1391530Y661670D02*
Y688670D01*
X1374530Y661670D02*
X1391530D01*
G54D48*
X707952Y777640D02*
G03*
X707952Y777640I-2032J0D01*
G01*
Y802640D02*
G03*
X707952Y802640I-2032J0D01*
G01*
Y827640D02*
G03*
X707952Y827640I-2032J0D01*
G01*
M02*
