G04*
G04 #@! TF.GenerationSoftware,Altium Limited,Altium Designer,22.1.2 (22)*
G04*
G04 Layer_Color=16711935*
%FSLAX44Y44*%
%MOMM*%
G71*
G04*
G04 #@! TF.SameCoordinates,19965E84-46C0-4100-99EA-0F3305BD4A74*
G04*
G04*
G04 #@! TF.FilePolarity,Positive*
G04*
G01*
G75*
%ADD10C,0.1270*%
%ADD11C,0.2000*%
%ADD13C,0.2540*%
%ADD14C,0.1000*%
%ADD15C,0.0500*%
%ADD47C,0.0000*%
G36*
X1040130Y859680D02*
X1032461D01*
Y878840D01*
X1040130D01*
Y859680D01*
D02*
G37*
G36*
X1065530Y859674D02*
X1057903D01*
Y878840D01*
X1065530D01*
Y859674D01*
D02*
G37*
G36*
X1090930Y859749D02*
X1083323D01*
Y878840D01*
X1090930D01*
Y859749D01*
D02*
G37*
G36*
X1515110Y812690D02*
X1507441D01*
Y831850D01*
X1515110D01*
Y812690D01*
D02*
G37*
G36*
X1540510Y812684D02*
X1532883D01*
Y831850D01*
X1540510D01*
Y812684D01*
D02*
G37*
G36*
X1565910Y812759D02*
X1558303D01*
Y831850D01*
X1565910D01*
Y812759D01*
D02*
G37*
G54D10*
X693991Y783390D02*
G03*
X693991Y821890I13479J19250D01*
G01*
X865890Y858520D02*
G03*
X865890Y858520I-31500J0D01*
G01*
X1603410Y670560D02*
G03*
X1603410Y670560I-62500J0D01*
G01*
X909590Y479190D02*
G03*
X909590Y479190I-62500J0D01*
G01*
X534270Y800100D02*
G03*
X534270Y800100I-25000J0D01*
G01*
X693970Y783405D02*
Y821875D01*
X1181710Y400220D02*
Y504220D01*
X1227710D01*
Y400220D02*
Y504220D01*
X1181710Y400220D02*
X1227710D01*
X1371300Y499400D02*
X1384300D01*
X1397300D01*
Y567400D01*
X1384300D02*
X1397300D01*
X1371300D02*
X1384300D01*
X1371300Y499400D02*
Y567400D01*
X1384300Y484400D02*
Y499400D01*
Y567400D02*
Y582400D01*
X1180440Y735500D02*
Y839500D01*
X1226440D01*
Y735500D02*
Y839500D01*
X1180440Y735500D02*
X1226440D01*
X1370030Y691170D02*
X1383030D01*
X1396030D01*
Y759170D01*
X1383030D02*
X1396030D01*
X1370030D02*
X1383030D01*
X1370030Y691170D02*
Y759170D01*
X1383030Y676170D02*
Y691170D01*
Y759170D02*
Y774170D01*
G54D11*
X706920Y844640D02*
G03*
X706920Y844640I-1000J0D01*
G01*
X475830Y458470D02*
G03*
X475830Y458470I-1000J0D01*
G01*
X1210850Y393990D02*
G03*
X1210850Y393990I-1000J0D01*
G01*
X1209580Y729270D02*
G03*
X1209580Y729270I-1000J0D01*
G01*
X1548980Y452120D02*
G03*
X1548980Y452120I-1000J0D01*
G01*
X796390Y858520D02*
G03*
X796390Y858520I-1000J0D01*
G01*
X1471910Y670560D02*
G03*
X1471910Y670560I-1000J0D01*
G01*
X848090Y549190D02*
G03*
X848090Y549190I-1000J0D01*
G01*
X542770Y800100D02*
G03*
X542770Y800100I-1000J0D01*
G01*
X933180Y1039980D02*
G03*
X933180Y1039980I-1000J0D01*
G01*
G54D13*
X1555773Y889433D02*
X1557891Y891551D01*
X1562128D01*
X1564247Y889433D01*
Y887314D01*
X1562128Y885195D01*
X1560010D01*
X1562128D01*
X1564247Y883077D01*
Y880958D01*
X1562128Y878840D01*
X1557891D01*
X1555773Y880958D01*
X1538815Y878840D02*
X1530347D01*
X1538815Y887309D01*
Y889426D01*
X1536698Y891543D01*
X1532464D01*
X1530347Y889426D01*
X1504892Y878840D02*
X1509132D01*
X1507012D01*
Y891559D01*
X1504892Y889439D01*
X1080793Y936423D02*
X1082911Y938541D01*
X1087148D01*
X1089267Y936423D01*
Y934304D01*
X1087148Y932186D01*
X1085030D01*
X1087148D01*
X1089267Y930067D01*
Y927949D01*
X1087148Y925830D01*
X1082911D01*
X1080793Y927949D01*
X1063835Y925830D02*
X1055367D01*
X1063835Y934299D01*
Y936416D01*
X1061718Y938533D01*
X1057484D01*
X1055367Y936416D01*
X1029912Y925830D02*
X1034152D01*
X1032032D01*
Y938549D01*
X1029912Y936429D01*
G54D14*
X481330Y443220D02*
X506730D01*
Y499120D01*
X481330D02*
X506730D01*
X481330Y443220D02*
Y499120D01*
X1554480Y436870D02*
X1579880D01*
Y492770D01*
X1554480D02*
X1579880D01*
X1554480Y436870D02*
Y492770D01*
X947430Y1046480D02*
Y1071880D01*
X891530D02*
X947430D01*
X891530Y1046480D02*
Y1071880D01*
Y1046480D02*
X947430D01*
G54D15*
X868390Y858520D02*
G03*
X868390Y858520I-34000J0D01*
G01*
X1605910Y670560D02*
G03*
X1605910Y670560I-65000J0D01*
G01*
X912090Y479190D02*
G03*
X912090Y479190I-65000J0D01*
G01*
X536770Y800100D02*
G03*
X536770Y800100I-27500J0D01*
G01*
X733470Y768140D02*
Y837140D01*
X691470Y768140D02*
X733470D01*
X691470D02*
Y837140D01*
X733470D01*
X478830Y440720D02*
X509230D01*
Y501620D01*
X478830D02*
X509230D01*
X478830Y440720D02*
Y501620D01*
X1179210Y397720D02*
Y506720D01*
X1230210D01*
Y397720D02*
Y506720D01*
X1179210Y397720D02*
X1230210D01*
X1375800Y469900D02*
Y496900D01*
X1368800D02*
X1375800D01*
X1368800D02*
Y569900D01*
X1375800D01*
Y596900D01*
X1392800D01*
Y569900D02*
Y596900D01*
Y569900D02*
X1399800D01*
Y496900D02*
Y569900D01*
X1392800Y496900D02*
X1399800D01*
X1392800Y469900D02*
Y496900D01*
X1375800Y469900D02*
X1392800D01*
X1177940Y733000D02*
Y842000D01*
X1228940D01*
Y733000D02*
Y842000D01*
X1177940Y733000D02*
X1228940D01*
X1551980Y434370D02*
X1582380D01*
Y495270D01*
X1551980D02*
X1582380D01*
X1551980Y434370D02*
Y495270D01*
X949930Y1043980D02*
Y1074380D01*
X889030D02*
X949930D01*
X889030Y1043980D02*
Y1074380D01*
Y1043980D02*
X949930D01*
X1374530Y661670D02*
Y688670D01*
X1367530D02*
X1374530D01*
X1367530D02*
Y761670D01*
X1374530D01*
Y788670D01*
X1391530D01*
Y761670D02*
Y788670D01*
Y761670D02*
X1398530D01*
Y688670D02*
Y761670D01*
X1391530Y688670D02*
X1398530D01*
X1391530Y661670D02*
Y688670D01*
X1374530Y661670D02*
X1391530D01*
G54D47*
X1578610Y990600D02*
G03*
X1578610Y990600I-41910J0D01*
G01*
D02*
G03*
X1578610Y990600I-41910J0D01*
G01*
X1103630Y1037590D02*
G03*
X1103630Y1037590I-41910J0D01*
G01*
D02*
G03*
X1103630Y1037590I-41910J0D01*
G01*
M02*
