G04*
G04 #@! TF.GenerationSoftware,Altium Limited,Altium Designer,22.1.2 (22)*
G04*
G04 Layer_Physical_Order=1*
G04 Layer_Color=255*
%FSLAX44Y44*%
%MOMM*%
G71*
G04*
G04 #@! TF.SameCoordinates,19965E84-46C0-4100-99EA-0F3305BD4A74*
G04*
G04*
G04 #@! TF.FilePolarity,Positive*
G04*
G01*
G75*
%ADD10C,0.1270*%
%ADD11C,0.2000*%
%ADD13C,0.2540*%
%ADD14C,0.1000*%
%ADD15C,0.0500*%
%ADD31C,2.0000*%
%ADD32C,1.4000*%
%ADD33R,1.4000X1.4000*%
%ADD34C,1.1600*%
%ADD35R,1.1600X1.1600*%
%ADD36C,1.9050*%
%ADD37R,1.9050X1.9050*%
%ADD38C,1.2000*%
%ADD39C,3.3020*%
%ADD40O,1.6764X3.3528*%
%ADD41C,1.1000*%
%ADD42R,1.1000X1.1000*%
%ADD43R,1.2000X1.2000*%
%ADD44R,1.2000X1.2000*%
%ADD45R,1.1600X1.1600*%
%ADD46C,3.0000*%
G36*
X1040130Y859680D02*
X1032461D01*
Y878840D01*
X1040130D01*
Y859680D01*
D02*
G37*
G36*
X1065530Y859674D02*
X1057903D01*
Y878840D01*
X1065530D01*
Y859674D01*
D02*
G37*
G36*
X1090930Y859749D02*
X1083323D01*
Y878840D01*
X1090930D01*
Y859749D01*
D02*
G37*
G36*
X1515110Y812690D02*
X1507441D01*
Y831850D01*
X1515110D01*
Y812690D01*
D02*
G37*
G36*
X1540510Y812684D02*
X1532883D01*
Y831850D01*
X1540510D01*
Y812684D01*
D02*
G37*
G36*
X1565910Y812759D02*
X1558303D01*
Y831850D01*
X1565910D01*
Y812759D01*
D02*
G37*
G54D10*
X693991Y783390D02*
G03*
X693991Y821890I13479J19250D01*
G01*
X865890Y858520D02*
G03*
X865890Y858520I-31500J0D01*
G01*
X1603410Y670560D02*
G03*
X1603410Y670560I-62500J0D01*
G01*
X909590Y479190D02*
G03*
X909590Y479190I-62500J0D01*
G01*
X534270Y800100D02*
G03*
X534270Y800100I-25000J0D01*
G01*
X693970Y783405D02*
Y821875D01*
X1181710Y400220D02*
Y504220D01*
X1227710D01*
Y400220D02*
Y504220D01*
X1181710Y400220D02*
X1227710D01*
X1371300Y499400D02*
X1384300D01*
X1397300D01*
Y567400D01*
X1384300D02*
X1397300D01*
X1371300D02*
X1384300D01*
X1371300Y499400D02*
Y567400D01*
X1384300Y484400D02*
Y499400D01*
Y567400D02*
Y582400D01*
X1180440Y735500D02*
Y839500D01*
X1226440D01*
Y735500D02*
Y839500D01*
X1180440Y735500D02*
X1226440D01*
X1370030Y691170D02*
X1383030D01*
X1396030D01*
Y759170D01*
X1383030D02*
X1396030D01*
X1370030D02*
X1383030D01*
X1370030Y691170D02*
Y759170D01*
X1383030Y676170D02*
Y691170D01*
Y759170D02*
Y774170D01*
G54D11*
X706920Y844640D02*
G03*
X706920Y844640I-1000J0D01*
G01*
X475830Y458470D02*
G03*
X475830Y458470I-1000J0D01*
G01*
X1210850Y393990D02*
G03*
X1210850Y393990I-1000J0D01*
G01*
X1209580Y729270D02*
G03*
X1209580Y729270I-1000J0D01*
G01*
X1548980Y452120D02*
G03*
X1548980Y452120I-1000J0D01*
G01*
X796390Y858520D02*
G03*
X796390Y858520I-1000J0D01*
G01*
X1471910Y670560D02*
G03*
X1471910Y670560I-1000J0D01*
G01*
X848090Y549190D02*
G03*
X848090Y549190I-1000J0D01*
G01*
X542770Y800100D02*
G03*
X542770Y800100I-1000J0D01*
G01*
X933180Y1039980D02*
G03*
X933180Y1039980I-1000J0D01*
G01*
G54D13*
X1224277Y934716D02*
X1221738Y937255D01*
X1216659D01*
X1214120Y934716D01*
Y924559D01*
X1216659Y922020D01*
X1221738D01*
X1224277Y924559D01*
Y929638D01*
X1219198D01*
X1229355Y922020D02*
Y937255D01*
X1236973D01*
X1239512Y934716D01*
Y929638D01*
X1236973Y927098D01*
X1229355D01*
X1234433D02*
X1239512Y922020D01*
X1252208Y937255D02*
X1247129D01*
X1244590Y934716D01*
Y924559D01*
X1247129Y922020D01*
X1252208D01*
X1254747Y924559D01*
Y934716D01*
X1252208Y937255D01*
X1259825D02*
Y924559D01*
X1262364Y922020D01*
X1267443D01*
X1269982Y924559D01*
Y937255D01*
X1275060Y922020D02*
Y937255D01*
X1282678D01*
X1285217Y934716D01*
Y929638D01*
X1282678Y927098D01*
X1275060D01*
X1305530Y922020D02*
X1310609D01*
X1308070D01*
Y937255D01*
X1305530Y934716D01*
X1318226Y937255D02*
X1328383D01*
Y934716D01*
X1318226Y924559D01*
Y922020D01*
X539750Y819148D02*
X549907D01*
X544828Y824227D02*
Y814070D01*
X1452880Y643888D02*
X1463037D01*
X1457958Y648967D02*
Y638810D01*
X885190Y566418D02*
X895347D01*
X890268Y571497D02*
Y561340D01*
X768350Y878838D02*
X778507D01*
X773428Y883917D02*
Y873760D01*
X1118870Y972815D02*
Y957580D01*
Y965198D01*
X1129027D01*
Y972815D01*
Y957580D01*
X1134105Y972815D02*
X1139183D01*
X1136644D01*
Y957580D01*
X1134105D01*
X1139183D01*
X1156958Y970276D02*
X1154418Y972815D01*
X1149340D01*
X1146801Y970276D01*
Y960119D01*
X1149340Y957580D01*
X1154418D01*
X1156958Y960119D01*
Y965198D01*
X1151879D01*
X1162036Y972815D02*
Y957580D01*
Y965198D01*
X1172193D01*
Y972815D01*
Y957580D01*
X1202663Y972815D02*
X1192506D01*
Y965198D01*
X1197585D01*
X1192506D01*
Y957580D01*
X1207741D02*
Y972815D01*
X1215359D01*
X1217898Y970276D01*
Y965198D01*
X1215359Y962658D01*
X1207741D01*
X1212820D02*
X1217898Y957580D01*
X1233133Y972815D02*
X1222976D01*
Y957580D01*
X1233133D01*
X1222976Y965198D02*
X1228055D01*
X1248368Y960119D02*
Y970276D01*
X1245829Y972815D01*
X1240751D01*
X1238211Y970276D01*
Y960119D01*
X1240751Y957580D01*
X1245829D01*
X1243290Y962658D02*
X1248368Y957580D01*
X1245829D02*
X1248368Y960119D01*
X1253447Y972815D02*
Y960119D01*
X1255986Y957580D01*
X1261064D01*
X1263603Y960119D01*
Y972815D01*
X1278838D02*
X1268681D01*
Y957580D01*
X1278838D01*
X1268681Y965198D02*
X1273760D01*
X1283917Y957580D02*
Y972815D01*
X1294073Y957580D01*
Y972815D01*
X1309308Y970276D02*
X1306769Y972815D01*
X1301691D01*
X1299152Y970276D01*
Y960119D01*
X1301691Y957580D01*
X1306769D01*
X1309308Y960119D01*
X1314387Y972815D02*
Y970276D01*
X1319465Y965198D01*
X1324543Y970276D01*
Y972815D01*
X1319465Y965198D02*
Y957580D01*
X1344857D02*
Y967737D01*
X1349935Y972815D01*
X1355014Y967737D01*
Y957580D01*
Y965198D01*
X1344857D01*
X1360092Y957580D02*
Y972815D01*
X1365170Y967737D01*
X1370249Y972815D01*
Y957580D01*
X1375327D02*
Y972815D01*
X1382945D01*
X1385484Y970276D01*
Y965198D01*
X1382945Y962658D01*
X1375327D01*
X1390562Y972815D02*
Y957580D01*
X1400719D01*
X1405797Y972815D02*
X1410876D01*
X1408336D01*
Y957580D01*
X1405797D01*
X1410876D01*
X1428650Y972815D02*
X1418493D01*
Y965198D01*
X1423571D01*
X1418493D01*
Y957580D01*
X1433728Y972815D02*
X1438806D01*
X1436267D01*
Y957580D01*
X1433728D01*
X1438806D01*
X1456581Y972815D02*
X1446424D01*
Y957580D01*
X1456581D01*
X1446424Y965198D02*
X1451502D01*
X1461659Y957580D02*
Y972815D01*
X1469277D01*
X1471816Y970276D01*
Y965198D01*
X1469277Y962658D01*
X1461659D01*
X1466738D02*
X1471816Y957580D01*
X1555773Y889433D02*
X1557891Y891551D01*
X1562128D01*
X1564247Y889433D01*
Y887314D01*
X1562128Y885195D01*
X1560010D01*
X1562128D01*
X1564247Y883077D01*
Y880958D01*
X1562128Y878840D01*
X1557891D01*
X1555773Y880958D01*
X1538815Y878840D02*
X1530347D01*
X1538815Y887309D01*
Y889426D01*
X1536698Y891543D01*
X1532464D01*
X1530347Y889426D01*
X1504892Y878840D02*
X1509132D01*
X1507012D01*
Y891559D01*
X1504892Y889439D01*
X1080793Y936423D02*
X1082911Y938541D01*
X1087148D01*
X1089267Y936423D01*
Y934304D01*
X1087148Y932186D01*
X1085030D01*
X1087148D01*
X1089267Y930067D01*
Y927949D01*
X1087148Y925830D01*
X1082911D01*
X1080793Y927949D01*
X1063835Y925830D02*
X1055367D01*
X1063835Y934299D01*
Y936416D01*
X1061718Y938533D01*
X1057484D01*
X1055367Y936416D01*
X1029912Y925830D02*
X1034152D01*
X1032032D01*
Y938549D01*
X1029912Y936429D01*
G54D14*
X481330Y443220D02*
X506730D01*
Y499120D01*
X481330D02*
X506730D01*
X481330Y443220D02*
Y499120D01*
X1554480Y436870D02*
X1579880D01*
Y492770D01*
X1554480D02*
X1579880D01*
X1554480Y436870D02*
Y492770D01*
X947430Y1046480D02*
Y1071880D01*
X891530D02*
X947430D01*
X891530Y1046480D02*
Y1071880D01*
Y1046480D02*
X947430D01*
G54D15*
X868390Y858520D02*
G03*
X868390Y858520I-34000J0D01*
G01*
X1605910Y670560D02*
G03*
X1605910Y670560I-65000J0D01*
G01*
X912090Y479190D02*
G03*
X912090Y479190I-65000J0D01*
G01*
X536770Y800100D02*
G03*
X536770Y800100I-27500J0D01*
G01*
X733470Y768140D02*
Y837140D01*
X691470Y768140D02*
X733470D01*
X691470D02*
Y837140D01*
X733470D01*
X478830Y440720D02*
X509230D01*
Y501620D01*
X478830D02*
X509230D01*
X478830Y440720D02*
Y501620D01*
X1179210Y397720D02*
Y506720D01*
X1230210D01*
Y397720D02*
Y506720D01*
X1179210Y397720D02*
X1230210D01*
X1375800Y469900D02*
Y496900D01*
X1368800D02*
X1375800D01*
X1368800D02*
Y569900D01*
X1375800D01*
Y596900D01*
X1392800D01*
Y569900D02*
Y596900D01*
Y569900D02*
X1399800D01*
Y496900D02*
Y569900D01*
X1392800Y496900D02*
X1399800D01*
X1392800Y469900D02*
Y496900D01*
X1375800Y469900D02*
X1392800D01*
X1177940Y733000D02*
Y842000D01*
X1228940D01*
Y733000D02*
Y842000D01*
X1177940Y733000D02*
X1228940D01*
X1551980Y434370D02*
X1582380D01*
Y495270D01*
X1551980D02*
X1582380D01*
X1551980Y434370D02*
Y495270D01*
X949930Y1043980D02*
Y1074380D01*
X889030D02*
X949930D01*
X889030Y1043980D02*
Y1074380D01*
Y1043980D02*
X949930D01*
X1374530Y661670D02*
Y688670D01*
X1367530D02*
X1374530D01*
X1367530D02*
Y761670D01*
X1374530D01*
Y788670D01*
X1391530D01*
Y761670D02*
Y788670D01*
Y761670D02*
X1398530D01*
Y688670D02*
Y761670D01*
X1391530Y688670D02*
X1398530D01*
X1391530Y661670D02*
Y688670D01*
X1374530Y661670D02*
X1391530D01*
G54D31*
X1127760Y533929D02*
G03*
X1127762Y533676I20000J55D01*
G01*
X1127762D02*
G03*
X1175282Y455953I90079J1686D01*
G01*
X980927Y849382D02*
G03*
X930826Y1058000I-224752J56350D01*
G01*
X932180Y787400D02*
G03*
X980927Y849382I-44854J85436D01*
G01*
X847090Y454190D02*
X847090D01*
X848853Y455953D02*
X1175282D01*
X847090Y454190D02*
X848853Y455953D01*
X704850Y457200D02*
X844080D01*
X847090Y454190D01*
X635000Y454660D02*
X635000D01*
X637540Y457200D02*
X704850D01*
X635000Y454660D02*
X637540Y457200D01*
X631190Y458470D02*
X635000Y454660D01*
X494030Y458470D02*
X631190D01*
X707390Y854710D02*
X711200Y858520D01*
X821890D01*
X930910Y784860D02*
X1127760D01*
X928370Y782320D02*
X930910Y784860D01*
X1127760D02*
X1130400Y787500D01*
X1209040D01*
X1127762Y533676D02*
X1127762D01*
X1180748Y454190D02*
X1208340D01*
X1127760Y533929D02*
Y784860D01*
X1210310Y452220D02*
X1567080D01*
X1208340Y454190D02*
X1210310Y452220D01*
X980927Y849382D02*
X980927D01*
X1212236Y816196D02*
X1509682D01*
X1209040Y813000D02*
X1212236Y816196D01*
X1210990Y478400D02*
X1384300D01*
G54D32*
X707390Y854710D02*
D03*
Y930910D02*
D03*
X705920Y777640D02*
D03*
Y802640D02*
D03*
X635000Y984250D02*
D03*
Y1060450D02*
D03*
X708660Y984250D02*
D03*
Y1060450D02*
D03*
X558800Y800100D02*
D03*
X635000D02*
D03*
X704850Y457200D02*
D03*
Y533400D02*
D03*
X635000Y454660D02*
D03*
Y530860D02*
D03*
X928370Y782320D02*
D03*
Y858520D02*
D03*
X933450Y712470D02*
D03*
Y636270D02*
D03*
X703580Y600710D02*
D03*
Y676910D02*
D03*
X1127760Y861060D02*
D03*
Y784860D02*
D03*
X1062990Y560070D02*
D03*
Y636270D02*
D03*
G54D33*
X705920Y827640D02*
D03*
G54D34*
X494030Y483870D02*
D03*
X1567180Y477520D02*
D03*
X906780Y1059180D02*
D03*
G54D35*
X494030Y458470D02*
D03*
X1567180Y452120D02*
D03*
G54D36*
X1210310Y477720D02*
D03*
Y452220D02*
D03*
X1209040Y813000D02*
D03*
Y787500D02*
D03*
G54D37*
X1210310Y426720D02*
D03*
X1209040Y762000D02*
D03*
G54D38*
X1384300Y478400D02*
D03*
Y588400D02*
D03*
X1565910Y670560D02*
D03*
X847090Y454190D02*
D03*
X1383030Y670170D02*
D03*
Y780170D02*
D03*
G54D39*
X1536700Y990600D02*
D03*
X1061720Y1037590D02*
D03*
G54D40*
X1562100Y815340D02*
D03*
X1536700D02*
D03*
X1511300D02*
D03*
X1087120Y862330D02*
D03*
X1061720D02*
D03*
X1036320D02*
D03*
G54D41*
X846890Y858520D02*
D03*
X496770Y800100D02*
D03*
G54D42*
X821890Y858520D02*
D03*
X521770Y800100D02*
D03*
G54D43*
X1515910Y670560D02*
D03*
G54D44*
X847090Y504190D02*
D03*
G54D45*
X932180Y1059180D02*
D03*
G54D46*
X473710Y1106170D02*
D03*
Y410210D02*
D03*
X1654810D02*
D03*
Y1106170D02*
D03*
M02*
